<svg width="19" height="21" viewBox="0 0 19 21" fill="none" xmlns="http://www.w3.org/2000/svg">
    <g filter="url(#filter0_d_28_1632)">
        <path d="M9 19C13.9706 19 18 14.9706 18 10C18 5.02944 13.9706 1 9 1C4.02944 1 0 5.02944 0 10C0 14.9706 4.02944 19 9 19Z" fill="black"/>
    </g>
    <path d="M9 19C13.9706 19 18 14.9706 18 10C18 5.02944 13.9706 1 9 1C4.02944 1 0 5.02944 0 10C0 14.9706 4.02944 19 9 19Z" fill="#F7931A"/>
    <path style="mix-blend-mode:soft-light" d="M9 19C13.9706 19 18 14.9706 18 10C18 5.02944 13.9706 1 9 1C4.02944 1 0 5.02944 0 10C0 14.9706 4.02944 19 9 19Z" fill="url(#paint0_linear_28_1632)"/>
    <path d="M5.6998 12.1C8.68214 12.1 11.0998 9.68234 11.0998 6.7C11.0998 3.71767 8.68214 1.3 5.6998 1.3C2.71747 1.3 0.299805 3.71767 0.299805 6.7C0.299805 9.68234 2.71747 12.1 5.6998 12.1Z" stroke="black" stroke-opacity="0.097"/>
    <g filter="url(#filter1_d_28_1632)">
        <path d="M13.3132 8.81211C13.5014 7.55436 12.5437 6.87823 11.2343 6.42718L11.6591 4.7234L10.622 4.46494L10.2084 6.12382C9.93579 6.05588 9.65577 5.99178 9.37751 5.92827L9.79401 4.25846L8.7575 4L8.33244 5.70319C8.10677 5.65179 7.88523 5.60098 7.67019 5.54752L7.67137 5.5422L6.24112 5.18508L5.96523 6.29278C5.96523 6.29278 6.73471 6.46912 6.71846 6.48005C7.1385 6.58491 7.21441 6.86287 7.20171 7.08323L6.71787 9.0242C6.74682 9.03158 6.78433 9.04222 6.82569 9.05876C6.79113 9.05019 6.7542 9.04074 6.7161 9.03158L6.0379 11.7506C5.9865 11.8782 5.85623 12.0696 5.56262 11.9969C5.57296 12.012 4.8088 11.8088 4.8088 11.8088L4.29395 12.9959L5.64356 13.3324C5.89463 13.3953 6.14069 13.4612 6.38291 13.5232L5.95371 15.2465L6.98962 15.5049L7.41468 13.8C7.69766 13.8768 7.97237 13.9477 8.24117 14.0144L7.81759 15.7114L8.85468 15.9699L9.28388 14.2498C11.0523 14.5845 12.3822 14.4495 12.9419 12.85C13.393 11.5621 12.9195 10.8192 11.989 10.3348C12.6666 10.1786 13.177 9.73282 13.3132 8.81211ZM10.9436 12.1349C10.6232 13.4228 8.45473 12.7265 7.75172 12.552L8.32122 10.2689C9.02423 10.4444 11.2786 10.7918 10.9436 12.1349ZM11.2644 8.7935C10.972 9.965 9.1672 9.3698 8.58175 9.22388L9.09808 7.15323C9.68353 7.29915 11.569 7.5715 11.2644 8.7935Z" fill="black"/>
    </g>
    <path d="M13.3132 8.81211C13.5014 7.55436 12.5437 6.87823 11.2343 6.42718L11.6591 4.7234L10.622 4.46494L10.2084 6.12382C9.93579 6.05588 9.65577 5.99178 9.37751 5.92827L9.79401 4.25846L8.7575 4L8.33244 5.70319C8.10677 5.65179 7.88523 5.60098 7.67019 5.54752L7.67137 5.5422L6.24112 5.18508L5.96523 6.29278C5.96523 6.29278 6.73471 6.46912 6.71846 6.48005C7.1385 6.58491 7.21441 6.86287 7.20171 7.08323L6.71787 9.0242C6.74682 9.03158 6.78433 9.04222 6.82569 9.05876C6.79113 9.05019 6.7542 9.04074 6.7161 9.03158L6.0379 11.7506C5.9865 11.8782 5.85623 12.0696 5.56262 11.9969C5.57296 12.012 4.8088 11.8088 4.8088 11.8088L4.29395 12.9959L5.64356 13.3324C5.89463 13.3953 6.14069 13.4612 6.38291 13.5232L5.95371 15.2465L6.98962 15.5049L7.41468 13.8C7.69766 13.8768 7.97237 13.9477 8.24117 14.0144L7.81759 15.7114L8.85468 15.9699L9.28388 14.2498C11.0523 14.5845 12.3822 14.4495 12.9419 12.85C13.393 11.5621 12.9195 10.8192 11.989 10.3348C12.6666 10.1786 13.177 9.73282 13.3132 8.81211ZM10.9436 12.1349C10.6232 13.4228 8.45473 12.7265 7.75172 12.552L8.32122 10.2689C9.02423 10.4444 11.2786 10.7918 10.9436 12.1349ZM11.2644 8.7935C10.972 9.965 9.1672 9.3698 8.58175 9.22388L9.09808 7.15323C9.68353 7.29915 11.569 7.5715 11.2644 8.7935Z" fill="white"/>
    <defs>
        <filter id="filter0_d_28_1632" x="-1" y="0.5" width="20" height="20" filterUnits="userSpaceOnUse" color-interpolation-filters="sRGB">
            <feFlood flood-opacity="0" result="BackgroundImageFix"/>
            <feColorMatrix in="SourceAlpha" type="matrix" values="0 0 0 0 0 0 0 0 0 0 0 0 0 0 0 0 0 0 127 0" result="hardAlpha"/>
            <feOffset dy="0.5"/>
            <feGaussianBlur stdDeviation="0.5"/>
            <feComposite in2="hardAlpha" operator="out"/>
            <feColorMatrix type="matrix" values="0 0 0 0 0 0 0 0 0 0 0 0 0 0 0 0 0 0 0.199474 0"/>
            <feBlend mode="normal" in2="BackgroundImageFix" result="effect1_dropShadow_28_1632"/>
            <feBlend mode="normal" in="SourceGraphic" in2="effect1_dropShadow_28_1632" result="shape"/>
        </filter>
        <filter id="filter1_d_28_1632" x="3.29395" y="3.5" width="11.043" height="13.9699" filterUnits="userSpaceOnUse" color-interpolation-filters="sRGB">
            <feFlood flood-opacity="0" result="BackgroundImageFix"/>
            <feColorMatrix in="SourceAlpha" type="matrix" values="0 0 0 0 0 0 0 0 0 0 0 0 0 0 0 0 0 0 127 0" result="hardAlpha"/>
            <feOffset dy="0.5"/>
            <feGaussianBlur stdDeviation="0.5"/>
            <feColorMatrix type="matrix" values="0 0 0 0 0 0 0 0 0 0 0 0 0 0 0 0 0 0 0.204257 0"/>
            <feBlend mode="normal" in2="BackgroundImageFix" result="effect1_dropShadow_28_1632"/>
            <feBlend mode="normal" in="SourceGraphic" in2="effect1_dropShadow_28_1632" result="shape"/>
        </filter>
        <linearGradient id="paint0_linear_28_1632" x1="900" y1="1" x2="900" y2="1801" gradientUnits="userSpaceOnUse">
            <stop stop-color="white" stop-opacity="0.5"/>
            <stop offset="1" stop-opacity="0.5"/>
        </linearGradient>
    </defs>
</svg>
