<svg width="19" height="21" viewBox="0 0 19 21" fill="none" xmlns="http://www.w3.org/2000/svg">
    <g filter="url(#filter0_d_28_1645)">
        <path d="M9 19C13.9706 19 18 14.9706 18 10C18 5.02944 13.9706 1 9 1C4.02944 1 0 5.02944 0 10C0 14.9706 4.02944 19 9 19Z" fill="black"/>
    </g>
    <path d="M9 19C13.9706 19 18 14.9706 18 10C18 5.02944 13.9706 1 9 1C4.02944 1 0 5.02944 0 10C0 14.9706 4.02944 19 9 19Z" fill="#627EEA"/>
    <path style="mix-blend-mode:soft-light" d="M9 19C13.9706 19 18 14.9706 18 10C18 5.02944 13.9706 1 9 1C4.02944 1 0 5.02944 0 10C0 14.9706 4.02944 19 9 19Z" fill="url(#paint0_linear_28_1645)"/>
    <path d="M8.9998 18.7C13.8047 18.7 17.6998 14.8049 17.6998 10C17.6998 5.19513 13.8047 1.3 8.9998 1.3C4.19493 1.3 0.299805 5.19513 0.299805 10C0.299805 14.8049 4.19493 18.7 8.9998 18.7Z" stroke="black" stroke-opacity="0.097"/>
    <g filter="url(#filter1_d_28_1645)">
        <path d="M9.29847 13.5805L13.7998 10.9699L9.29844 17.1968L9.29838 17.1966L4.7998 10.9698L9.29847 13.5805V13.5805ZM9.29845 2.80003L13.7971 10.1319L9.29847 12.7439L4.7998 10.1319L9.29845 2.80003Z" fill="black"/>
    </g>
    <path d="M9.29883 2.8V8.122L13.797 10.132L9.29883 2.8Z" fill="white" fill-opacity="0.602"/>
    <path d="M9.2986 2.8L4.7998 10.132L9.2986 8.122V2.8Z" fill="white"/>
    <path d="M9.29883 13.5808V17.197L13.8 10.9696L9.29883 13.5808Z" fill="white" fill-opacity="0.602"/>
    <path d="M9.2986 17.197V13.5802L4.7998 10.9696L9.2986 17.197Z" fill="white"/>
    <path d="M9.29883 12.7438L13.797 10.132L9.29883 8.12321V12.7438Z" fill="white" fill-opacity="0.2"/>
    <path d="M4.7998 10.132L9.2986 12.7438V8.12321L4.7998 10.132Z" fill="white" fill-opacity="0.602"/>
    <defs>
        <filter id="filter0_d_28_1645" x="-1" y="0.5" width="20" height="20" filterUnits="userSpaceOnUse" color-interpolation-filters="sRGB">
            <feFlood flood-opacity="0" result="BackgroundImageFix"/>
            <feColorMatrix in="SourceAlpha" type="matrix" values="0 0 0 0 0 0 0 0 0 0 0 0 0 0 0 0 0 0 127 0" result="hardAlpha"/>
            <feOffset dy="0.5"/>
            <feGaussianBlur stdDeviation="0.5"/>
            <feComposite in2="hardAlpha" operator="out"/>
            <feColorMatrix type="matrix" values="0 0 0 0 0 0 0 0 0 0 0 0 0 0 0 0 0 0 0.199474 0"/>
            <feBlend mode="normal" in2="BackgroundImageFix" result="effect1_dropShadow_28_1645"/>
            <feBlend mode="normal" in="SourceGraphic" in2="effect1_dropShadow_28_1645" result="shape"/>
        </filter>
        <filter id="filter1_d_28_1645" x="3.7998" y="2.30003" width="11" height="16.3968" filterUnits="userSpaceOnUse" color-interpolation-filters="sRGB">
            <feFlood flood-opacity="0" result="BackgroundImageFix"/>
            <feColorMatrix in="SourceAlpha" type="matrix" values="0 0 0 0 0 0 0 0 0 0 0 0 0 0 0 0 0 0 127 0" result="hardAlpha"/>
            <feOffset dy="0.5"/>
            <feGaussianBlur stdDeviation="0.5"/>
            <feComposite in2="hardAlpha" operator="out"/>
            <feColorMatrix type="matrix" values="0 0 0 0 0 0 0 0 0 0 0 0 0 0 0 0 0 0 0.204257 0"/>
            <feBlend mode="normal" in2="BackgroundImageFix" result="effect1_dropShadow_28_1645"/>
            <feBlend mode="normal" in="SourceGraphic" in2="effect1_dropShadow_28_1645" result="shape"/>
        </filter>
        <linearGradient id="paint0_linear_28_1645" x1="900" y1="1" x2="900" y2="1801" gradientUnits="userSpaceOnUse">
            <stop stop-color="white" stop-opacity="0.5"/>
            <stop offset="1" stop-opacity="0.5"/>
        </linearGradient>
    </defs>
</svg>