<svg width="128" height="128" viewBox="0 0 128 128" fill="none" xmlns="http://www.w3.org/2000/svg">
    <g clip-path="url(#clip0_28_2020)">
        <path d="M127.956 36.312C128.016 33.356 127.22 26.456 118.224 24.056L27.9199 5.98C21.2999 5.98 15.9199 11.36 15.9199 17.98V34.068L11.9199 34.06C5.32387 34.088 -0.0361328 39.452 -0.0361328 46.056V110.032C-0.0361328 116.648 5.34387 122.032 11.9639 122.032H116.02C122.636 122.032 128.02 116.648 128.02 110.032L127.956 36.312ZM23.9239 17.976C23.9239 15.888 25.5319 14.168 27.5759 13.992L115.828 31.852C115.86 31.868 115.172 34.092 111.968 34.052H23.9239V17.976ZM120.032 110.028C120.032 112.236 118.24 114.028 116.032 114.028H11.9719C9.76387 114.028 7.97187 112.236 7.97187 110.028V46.048C7.97187 43.84 9.76387 42.048 11.9719 42.048H111.98C115.908 42.048 120.028 40.708 120.028 38.064L120.032 110.028ZM23.9799 70.064C19.5639 70.064 15.9799 73.644 15.9799 78.064C15.9799 82.484 19.5639 86.064 23.9799 86.064C28.3959 86.064 31.9799 82.484 31.9799 78.064C31.9799 73.644 28.3959 70.064 23.9799 70.064Z" fill="white"/>
    </g>
    <defs>
        <clipPath id="clip0_28_2020">
            <rect width="128" height="128" fill="white"/>
        </clipPath>
    </defs>
</svg>