<svg width="130" height="130" viewBox="0 0 130 130" fill="none" xmlns="http://www.w3.org/2000/svg">
    <g clip-path="url(#clip0_53_1419)">
        <path d="M65.0001 5.6188C53.1788 5.6188 41.6229 9.12931 31.7937 15.7064C21.9646 22.2835 14.3036 31.6313 9.77973 42.5686C5.25591 53.5057 4.07223 65.5415 6.37846 77.1524C8.68469 88.7633 14.3772 99.4285 22.7363 107.799C31.0952 116.17 41.7454 121.872 53.3395 124.181C64.9337 126.491 76.9517 125.305 87.8735 120.774C98.7947 116.244 108.13 108.572 114.697 98.7288C121.265 88.8854 124.77 77.3134 124.77 65.4751" stroke="white" stroke-width="10" stroke-linecap="round" stroke-linejoin="round"/>
        <path d="M69.1859 90.2549V96.8397C69.1859 97.9033 68.7633 98.9239 68.0126 99.6757C67.2613 100.428 66.2428 100.849 65.1807 100.849C64.1186 100.849 63.1001 100.428 62.3494 99.6757C61.5981 98.9239 61.1761 97.9033 61.1761 96.8397V90.0766C58.5241 89.6402 55.9851 88.6801 53.7072 87.252C51.429 85.8232 49.4574 83.9545 47.9073 81.7554C47.3427 81.0377 47.028 80.1554 47.0107 79.242C47.0102 78.7237 47.1147 78.2095 47.3181 77.7324C47.5215 77.256 47.8194 76.825 48.1938 76.4671C48.5683 76.1091 49.0114 75.8302 49.4964 75.6488C49.9814 75.4669 50.4982 75.3861 51.0155 75.4106C51.5287 75.4076 52.0362 75.519 52.5013 75.7362C52.9665 75.9535 53.3773 76.2732 53.7048 76.6688C55.6169 79.1702 58.2121 81.0616 61.1761 82.1151V66.9117C53.2267 63.7991 49.2222 59.1298 49.2222 53.0843C49.342 49.8479 50.6123 46.7607 52.8041 44.3792C54.9959 41.9977 57.9646 40.479 61.1761 40.096V33.5112C61.1761 32.4476 61.5981 31.4284 62.3494 30.6763C63.1001 29.9242 64.1186 29.5013 65.1807 29.5013C66.2428 29.5013 67.2613 29.9242 68.0126 30.6763C68.7633 31.4284 69.1859 32.4476 69.1859 33.5112V40.0361C71.4099 40.3851 73.5407 41.1797 75.451 42.3727C77.3612 43.5658 79.0115 45.1322 80.3025 46.9788C80.8721 47.6521 81.208 48.4933 81.2588 49.3738C81.275 49.8868 81.1883 50.3974 81.003 50.8762C80.8177 51.3551 80.5386 51.792 80.1818 52.1607C79.825 52.5294 79.3976 52.8215 78.926 53.0214C78.4538 53.2214 77.9464 53.3243 77.4336 53.3237C76.898 53.3207 76.3697 53.2022 75.8849 52.9748C75.4002 52.7473 74.9698 52.4169 74.6244 52.0075C73.1994 50.2244 71.3209 48.8602 69.1859 48.0576V61.5252L70.6801 62.1226C78.2709 65.1154 82.9928 69.4256 82.9928 76.2492C82.9037 79.9052 81.4256 83.3894 78.8603 85.992C76.2949 88.5945 72.8348 90.1185 69.1859 90.2549ZM61.1761 58.0529V48.2958C60.2114 48.646 59.3812 49.2912 58.802 50.14C58.2234 50.9881 57.9246 51.9973 57.9491 53.0244C57.9389 54.0863 58.239 55.1284 58.8122 56.0214C59.386 56.9151 60.2072 57.6214 61.1761 58.0529ZM74.2657 76.4288C74.2657 73.5557 72.2939 71.8199 69.1859 70.4432V82.4144C70.6108 82.1983 71.9102 81.4728 72.8438 80.3733C73.7774 79.2731 74.2825 77.8725 74.2657 76.4288Z" fill="white"/>
        <path d="M90.939 39.1978L124.769 5.31924" stroke="white" stroke-width="10" stroke-linecap="round" stroke-linejoin="round"/>
        <path d="M97.6982 5.31924H124.774V32.4341" stroke="white" stroke-width="10" stroke-linecap="round" stroke-linejoin="round"/>
    </g>
    <defs>
        <clipPath id="clip0_53_1419">
            <rect width="130" height="130" fill="white"/>
        </clipPath>
    </defs>
</svg>
